<svg xmlns="http://www.w3.org/2000/svg" xmlns:xlink="http://www.w3.org/1999/xlink"
	contentStyleType="text/css" height="235px" preserveAspectRatio="none"
	style="width:524px;height:235px;background:#FFFFFF;" version="1.1" viewBox="0 0 524 235"
	width="524px" zoomAndPan="magnify">
	<defs />
	<g><!--class
		BlockExecutor-->
		<g id="elem_BlockExecutor">
			<rect codeLine="3" fill="#F1F1F1" height="32" id="BlockExecutor" rx="2.5"
				ry="2.5" style="stroke:#181818;stroke-width:0.5;" width="131.9893"
				x="50.5" y="10.5659" />
			<ellipse cx="65.5" cy="26.5659" fill="#B4A7E5" rx="11" ry="11"
				style="stroke:#181818;stroke-width:1.0;" />
			<path
				d="M61.4219,22.3315 L61.4219,20.1753 L68.8125,20.1753 L68.8125,22.3315 L66.3438,22.3315 L66.3438,30.4097 L68.8125,30.4097 L68.8125,32.5659 L61.4219,32.5659 L61.4219,30.4097 L63.8906,30.4097 L63.8906,22.3315 L61.4219,22.3315 Z "
				fill="#000000" />
			<text fill="#000000" font-family="sans-serif" font-size="14"
				font-style="italic" lengthAdjust="spacing" textLength="99.9893"
				x="79.5" y="31.4126">BlockExecutor</text>
		</g><!--class
		IOTypeImplementation-->
		<g id="elem_IOTypeImplementation">
			<rect codeLine="4" fill="#F1F1F1" height="32" id="IOTypeImplementation"
				rx="2.5" ry="2.5" style="stroke:#181818;stroke-width:0.5;"
				width="192.6514" x="261" y="10.5659" />
			<ellipse cx="276" cy="26.5659" fill="#B4A7E5" rx="11" ry="11"
				style="stroke:#181818;stroke-width:1.0;" />
			<path
				d="M271.9219,22.3315 L271.9219,20.1753 L279.3125,20.1753 L279.3125,22.3315 L276.8438,22.3315 L276.8438,30.4097 L279.3125,30.4097 L279.3125,32.5659 L271.9219,32.5659 L271.9219,30.4097 L274.3906,30.4097 L274.3906,22.3315 L271.9219,22.3315 Z "
				fill="#000000" />
			<text fill="#000000" font-family="sans-serif" font-size="14"
				font-style="italic" lengthAdjust="spacing" textLength="160.6514"
				x="290" y="31.4126">IOTypeImplementation</text>
		</g><!--class
		Table-->
		<g id="elem_Table">
			<rect codeLine="5" fill="#F1F1F1" height="32" id="Table" rx="2.5" ry="2.5"
				style="stroke:#181818;stroke-width:0.5;" width="70.5205" x="322"
				y="103.5659" />
			<ellipse cx="337" cy="119.5659" fill="#A9DCDF" rx="11" ry="11"
				style="stroke:#181818;stroke-width:1.0;" />
			<path
				d="M337.1094,114.9097 L335.9531,119.9878 L338.2813,119.9878 L337.1094,114.9097 Z M335.625,112.6753 L338.6094,112.6753 L341.9688,125.0659 L339.5156,125.0659 L338.75,122.0034 L335.4688,122.0034 L334.7188,125.0659 L332.2813,125.0659 L335.625,112.6753 Z "
				fill="#000000" />
			<text fill="#000000" font-family="sans-serif" font-size="14"
				font-style="italic" lengthAdjust="spacing" textLength="38.5205"
				x="351" y="124.4126">Table</text>
		</g><!--class
		OldTable-->
		<g id="elem_OldTable">
			<rect codeLine="6" fill="#F1F1F1" height="32" id="OldTable" rx="2.5"
				ry="2.5" style="stroke:#181818;stroke-width:0.5;" width="94.3164"
				x="286.5" y="196.5659" />
			<ellipse cx="301.5" cy="212.5659" fill="#ADD1B2" rx="11" ry="11"
				style="stroke:#181818;stroke-width:1.0;" />
			<path
				d="M304.4688,218.2065 Q303.8906,218.5034 303.25,218.644 Q302.6094,218.8003 301.9063,218.8003 Q299.4063,218.8003 298.0781,217.1597 Q296.7656,215.5034 296.7656,212.3784 Q296.7656,209.2534 298.0781,207.5972 Q299.4063,205.9409 301.9063,205.9409 Q302.6094,205.9409 303.25,206.0972 Q303.9063,206.2534 304.4688,206.5503 L304.4688,209.269 Q303.8438,208.6909 303.25,208.4253 Q302.6563,208.144 302.0313,208.144 Q300.6875,208.144 300,209.2222 Q299.3125,210.2847 299.3125,212.3784 Q299.3125,214.4722 300,215.5503 Q300.6875,216.6128 302.0313,216.6128 Q302.6563,216.6128 303.25,216.3472 Q303.8438,216.0659 304.4688,215.4878 L304.4688,218.2065 Z "
				fill="#000000" />
			<text fill="#000000" font-family="sans-serif" font-size="14"
				lengthAdjust="spacing" textLength="62.3164" x="315.5" y="217.4126">
				OldTable</text>
		</g><!--class
		NewTable-->
		<g id="elem_NewTable">
			<rect codeLine="7" fill="#F1F1F1" height="32" id="NewTable" rx="2.5"
				ry="2.5" style="stroke:#181818;stroke-width:0.5;" width="101.0566"
				x="416" y="196.5659" />
			<ellipse cx="431" cy="212.5659" fill="#ADD1B2" rx="11" ry="11"
				style="stroke:#181818;stroke-width:1.0;" />
			<path
				d="M433.9688,218.2065 Q433.3906,218.5034 432.75,218.644 Q432.1094,218.8003 431.4063,218.8003 Q428.9063,218.8003 427.5781,217.1597 Q426.2656,215.5034 426.2656,212.3784 Q426.2656,209.2534 427.5781,207.5972 Q428.9063,205.9409 431.4063,205.9409 Q432.1094,205.9409 432.75,206.0972 Q433.4063,206.2534 433.9688,206.5503 L433.9688,209.269 Q433.3438,208.6909 432.75,208.4253 Q432.1563,208.144 431.5313,208.144 Q430.1875,208.144 429.5,209.2222 Q428.8125,210.2847 428.8125,212.3784 Q428.8125,214.4722 429.5,215.5503 Q430.1875,216.6128 431.5313,216.6128 Q432.1563,216.6128 432.75,216.3472 Q433.3438,216.0659 433.9688,215.4878 L433.9688,218.2065 Z "
				fill="#000000" />
			<text fill="#000000" font-family="sans-serif" font-size="14"
				lengthAdjust="spacing" textLength="69.0566" x="445" y="217.4126">
				NewTable</text>
		</g><!--class
		AbstractBlockExecutor-->
		<g id="elem_AbstractBlockExecutor">
			<rect codeLine="12" fill="#F1F1F1" height="32" id="AbstractBlockExecutor"
				rx="2.5" ry="2.5" style="stroke:#181818;stroke-width:0.5;"
				width="190.7578" x="21" y="103.5659" />
			<ellipse cx="36" cy="119.5659" fill="#A9DCDF" rx="11" ry="11"
				style="stroke:#181818;stroke-width:1.0;" />
			<path
				d="M36.1094,114.9097 L34.9531,119.9878 L37.2813,119.9878 L36.1094,114.9097 Z M34.625,112.6753 L37.6094,112.6753 L40.9688,125.0659 L38.5156,125.0659 L37.75,122.0034 L34.4688,122.0034 L33.7188,125.0659 L31.2813,125.0659 L34.625,112.6753 Z "
				fill="#000000" />
			<text fill="#000000" font-family="sans-serif" font-size="14"
				font-style="italic" lengthAdjust="spacing" textLength="158.7578"
				x="50" y="124.4126">AbstractBlockExecutor</text>
		</g><!--class
		TableTransformerExecutor-->
		<g id="elem_TableTransformerExecutor">
			<rect codeLine="13" fill="#F1F1F1" height="32" id="TableTransformerExecutor"
				rx="2.5" ry="2.5" style="stroke:#181818;stroke-width:0.5;"
				width="218.9561" x="7" y="196.5659" />
			<ellipse cx="22" cy="212.5659" fill="#ADD1B2" rx="11" ry="11"
				style="stroke:#181818;stroke-width:1.0;" />
			<path
				d="M24.9688,218.2065 Q24.3906,218.5034 23.75,218.644 Q23.1094,218.8003 22.4063,218.8003 Q19.9063,218.8003 18.5781,217.1597 Q17.2656,215.5034 17.2656,212.3784 Q17.2656,209.2534 18.5781,207.5972 Q19.9063,205.9409 22.4063,205.9409 Q23.1094,205.9409 23.75,206.0972 Q24.4063,206.2534 24.9688,206.5503 L24.9688,209.269 Q24.3438,208.6909 23.75,208.4253 Q23.1563,208.144 22.5313,208.144 Q21.1875,208.144 20.5,209.2222 Q19.8125,210.2847 19.8125,212.3784 Q19.8125,214.4722 20.5,215.5503 Q21.1875,216.6128 22.5313,216.6128 Q23.1563,216.6128 23.75,216.3472 Q24.3438,216.0659 24.9688,215.4878 L24.9688,218.2065 Z "
				fill="#000000" />
			<text fill="#000000" font-family="sans-serif" font-size="14"
				lengthAdjust="spacing" textLength="186.9561" x="36" y="217.4126">
				TableTransformerExecutor</text>
		</g><!--reverse
		link IOTypeImplementation to Table-->
		<g id="link_IOTypeImplementation_Table">
			<path d="M357.5,60.5959 C357.5,77.4559 357.5,86.6459 357.5,103.5159 "
				fill="none" id="IOTypeImplementation-backto-Table"
				style="stroke:#181818;stroke-width:1.0;stroke-dasharray:7.0,7.0;" />
			<polygon fill="none"
				points="357.5,42.5959,351.5,60.5959,363.5,60.5959,357.5,42.5959"
				style="stroke:#181818;stroke-width:1.0;" />
		</g><!--reverse
		link Table to OldTable-->
		<g id="link_Table_OldTable">
			<path
				d="M348.9464,152.9999 C344.4964,169.8599 341.92,179.6459 337.47,196.5159 "
				fill="none" id="Table-backto-OldTable"
				style="stroke:#181818;stroke-width:1.0;" />
			<polygon fill="none"
				points="353.54,135.5959,343.1451,151.4687,354.7478,154.5311,353.54,135.5959"
				style="stroke:#181818;stroke-width:1.0;" />
		</g><!--reverse
		link Table to NewTable-->
		<g id="link_Table_NewTable">
			<path d="M389.319,147.13 C409.519,163.99 428.27,179.6459 448.47,196.5159 "
				fill="none" id="Table-backto-NewTable"
				style="stroke:#181818;stroke-width:1.0;" />
			<polygon fill="none"
				points="375.5,135.5959,385.4743,151.7363,393.1637,142.5237,375.5,135.5959"
				style="stroke:#181818;stroke-width:1.0;" />
		</g><!--link
		BlockExecutor to IOTypeImplementation-->
		<g id="link_BlockExecutor_IOTypeImplementation">
			<path codeLine="9"
				d="M179,42.6059 C187.44,44.2359 196.02,45.6359 204.25,46.5659 C232.11,49.7059 262.76,46.9459 289.29,42.5859 "
				fill="none" id="BlockExecutor-IOTypeImplementation"
				style="stroke:#181818;stroke-width:1.0;" />
			<text fill="#000000" font-family="sans-serif" font-size="13"
				lengthAdjust="spacing" textLength="33.4395" x="205.25" y="42.6328">
				input</text>
		</g><!--link
		BlockExecutor to IOTypeImplementation-->
		<g id="link_BlockExecutor_IOTypeImplementation">
			<path codeLine="10"
				d="M182.67,26.5659 C206.78,26.5659 234.56,26.5659 260.77,26.5659 "
				fill="none" id="BlockExecutor-IOTypeImplementation-1"
				style="stroke:#181818;stroke-width:1.0;" />
			<text fill="#000000" font-family="sans-serif" font-size="13"
				lengthAdjust="spacing" textLength="42.8784" x="200.75" y="19.6328">
				output</text>
		</g><!--reverse
		link BlockExecutor to AbstractBlockExecutor-->
		<g id="link_BlockExecutor_AbstractBlockExecutor">
			<path d="M116.5,60.5959 C116.5,77.4559 116.5,86.6459 116.5,103.5159 "
				fill="none" id="BlockExecutor-backto-AbstractBlockExecutor"
				style="stroke:#181818;stroke-width:1.0;stroke-dasharray:7.0,7.0;" />
			<polygon fill="none"
				points="116.5,42.5959,110.5,60.5959,122.5,60.5959,116.5,42.5959"
				style="stroke:#181818;stroke-width:1.0;" />
		</g><!--reverse
		link AbstractBlockExecutor to TableTransformerExecutor-->
		<g id="link_AbstractBlockExecutor_TableTransformerExecutor">
			<path d="M116.5,153.5959 C116.5,170.4559 116.5,179.6459 116.5,196.5159 "
				fill="none"
				id="AbstractBlockExecutor-backto-TableTransformerExecutor"
				style="stroke:#181818;stroke-width:1.0;" />
			<polygon fill="none"
				points="116.5,135.5959,110.5,153.5959,122.5,153.5959,116.5,135.5959"
				style="stroke:#181818;stroke-width:1.0;" />
		</g><!--SRC=[TP0x3eD034HhE8Klm0NI9L8Acj1m0RCCoYhxGRj68RSF4Hz1WDAQDxPddhe6MTWA8QPfacWd20qhqCruzRhtK9tui57oeloqo6rhOE64HNit05n52Qo4bE4OgUJAWFHCnJFRI1Uc7Wte1QwUx8lymFj87lJDcqGP7Twva7Pj9pi-Ew5z9pzyd-ewZTirgvJ_jQtAA0ExsFXW4HRddETmxnS0]-->
	</g>
</svg>
