<svg xmlns="http://www.w3.org/2000/svg" xmlns:xlink="http://www.w3.org/1999/xlink"
	contentStyleType="text/css" height="568px" preserveAspectRatio="none"
	style="width:204px;height:568px;background:#FFFFFF;" version="1.1" viewBox="0 0 204 568"
	width="204px" zoomAndPan="magnify">
	<defs />
	<g>
		<ellipse cx="102.3457" cy="20" fill="#222222" rx="10" ry="10"
			style="stroke:#222222;stroke-width:1.0;" />
		<rect fill="#F1F1F1" height="33.9688" rx="12.5" ry="12.5"
			style="stroke:#181818;stroke-width:0.5;" width="113.832" x="45.4297" y="50" />
		<text fill="#000000" font-family="sans-serif" font-size="12" lengthAdjust="spacing"
			textLength="93.832" x="55.4297" y="71.1387">AddColumnOne</text>
		<rect fill="#F1F1F1" height="33.9688" rx="12.5" ry="12.5"
			style="stroke:#181818;stroke-width:0.5;" width="79.584" x="62.5537"
			y="103.9688" />
		<text fill="#000000" font-family="sans-serif" font-size="12" lengthAdjust="spacing"
			textLength="59.584" x="72.5537" y="125.1074">BitPlusVol</text>
		<rect fill="#F1F1F1" height="33.9688" rx="12.5" ry="12.5"
			style="stroke:#181818;stroke-width:0.5;" width="111.6055" x="46.543"
			y="157.9375" />
		<text fill="#000000" font-family="sans-serif" font-size="12" lengthAdjust="spacing"
			textLength="91.6055" x="56.543" y="179.0762">UpdatePHLevel</text>
		<rect fill="#F1F1F1" height="33.9688" rx="12.5" ry="12.5"
			style="stroke:#181818;stroke-width:0.5;" width="70.7832" x="66.9541"
			y="211.9063" />
		<text fill="#000000" font-family="sans-serif" font-size="12" lengthAdjust="spacing"
			textLength="50.7832" x="76.9541" y="233.0449">SoldSqrt</text>
		<rect fill="#F1F1F1" height="33.9688" rx="12.5" ry="12.5"
			style="stroke:#181818;stroke-width:0.5;" width="182.6914" x="11" y="265.875" />
		<text fill="#000000" font-family="sans-serif" font-size="12" lengthAdjust="spacing"
			textLength="162.6914" x="21" y="287.0137">AddColmumnOneDuplicate</text>
		<rect fill="#F1F1F1" height="33.9688" rx="12.5" ry="12.5"
			style="stroke:#181818;stroke-width:0.5;" width="136.7539" x="33.9688"
			y="319.8438" />
		<text fill="#000000" font-family="sans-serif" font-size="12" lengthAdjust="spacing"
			textLength="116.7539" x="43.9688" y="340.9824">BitPlusVolDuplicate</text>
		<rect fill="#F1F1F1" height="33.9688" rx="12.5" ry="12.5"
			style="stroke:#181818;stroke-width:0.5;" width="168.7754" x="17.958"
			y="373.8125" />
		<text fill="#000000" font-family="sans-serif" font-size="12" lengthAdjust="spacing"
			textLength="148.7754" x="27.958" y="394.9512">UpdatePHLevelDuplicate</text>
		<rect fill="#F1F1F1" height="33.9688" rx="12.5" ry="12.5"
			style="stroke:#181818;stroke-width:0.5;" width="127.9531" x="38.3691"
			y="427.7813" />
		<text fill="#000000" font-family="sans-serif" font-size="12" lengthAdjust="spacing"
			textLength="107.9531" x="48.3691" y="448.9199">SoldSqrtDuplicate</text>
		<rect fill="#F1F1F1" height="33.9688" rx="12.5" ry="12.5"
			style="stroke:#181818;stroke-width:0.5;" width="98.832" x="52.9297"
			y="481.75" />
		<text fill="#000000" font-family="sans-serif" font-size="12" lengthAdjust="spacing"
			textLength="78.832" x="62.9297" y="502.8887">LiquorLoader</text>
		<ellipse cx="102.3457" cy="546.7188" fill="none" rx="11" ry="11"
			style="stroke:#222222;stroke-width:1.0;" />
		<ellipse cx="102.3457" cy="546.7188" fill="#222222" rx="6" ry="6"
			style="stroke:#222222;stroke-width:1.0;" />
		<line style="stroke:#181818;stroke-width:1.0;" x1="102.3457" x2="102.3457" y1="30"
			y2="50" />
		<polygon fill="#181818" points="98.3457,40,102.3457,50,106.3457,40,102.3457,44"
			style="stroke:#181818;stroke-width:1.0;" />
		<line style="stroke:#181818;stroke-width:1.0;" x1="102.3457" x2="102.3457"
			y1="83.9688" y2="103.9688" />
		<polygon fill="#181818"
			points="98.3457,93.9688,102.3457,103.9688,106.3457,93.9688,102.3457,97.9688"
			style="stroke:#181818;stroke-width:1.0;" />
		<line style="stroke:#181818;stroke-width:1.0;" x1="102.3457" x2="102.3457"
			y1="137.9375" y2="157.9375" />
		<polygon fill="#181818"
			points="98.3457,147.9375,102.3457,157.9375,106.3457,147.9375,102.3457,151.9375"
			style="stroke:#181818;stroke-width:1.0;" />
		<line style="stroke:#181818;stroke-width:1.0;" x1="102.3457" x2="102.3457"
			y1="191.9063" y2="211.9063" />
		<polygon fill="#181818"
			points="98.3457,201.9063,102.3457,211.9063,106.3457,201.9063,102.3457,205.9063"
			style="stroke:#181818;stroke-width:1.0;" />
		<line style="stroke:#181818;stroke-width:1.0;" x1="102.3457" x2="102.3457"
			y1="245.875" y2="265.875" />
		<polygon fill="#181818"
			points="98.3457,255.875,102.3457,265.875,106.3457,255.875,102.3457,259.875"
			style="stroke:#181818;stroke-width:1.0;" />
		<line style="stroke:#181818;stroke-width:1.0;" x1="102.3457" x2="102.3457"
			y1="299.8438" y2="319.8438" />
		<polygon fill="#181818"
			points="98.3457,309.8438,102.3457,319.8438,106.3457,309.8438,102.3457,313.8438"
			style="stroke:#181818;stroke-width:1.0;" />
		<line style="stroke:#181818;stroke-width:1.0;" x1="102.3457" x2="102.3457"
			y1="353.8125" y2="373.8125" />
		<polygon fill="#181818"
			points="98.3457,363.8125,102.3457,373.8125,106.3457,363.8125,102.3457,367.8125"
			style="stroke:#181818;stroke-width:1.0;" />
		<line style="stroke:#181818;stroke-width:1.0;" x1="102.3457" x2="102.3457"
			y1="407.7813" y2="427.7813" />
		<polygon fill="#181818"
			points="98.3457,417.7813,102.3457,427.7813,106.3457,417.7813,102.3457,421.7813"
			style="stroke:#181818;stroke-width:1.0;" />
		<line style="stroke:#181818;stroke-width:1.0;" x1="102.3457" x2="102.3457"
			y1="461.75" y2="481.75" />
		<polygon fill="#181818"
			points="98.3457,471.75,102.3457,481.75,106.3457,471.75,102.3457,475.75"
			style="stroke:#181818;stroke-width:1.0;" />
		<line style="stroke:#181818;stroke-width:1.0;" x1="102.3457" x2="102.3457"
			y1="515.7188" y2="535.7188" />
		<polygon fill="#181818"
			points="98.3457,525.7188,102.3457,535.7188,106.3457,525.7188,102.3457,529.7188"
			style="stroke:#181818;stroke-width:1.0;" /><!--SRC=[Aov9B2hXuWG3AyUK5EVydDBSFF-yL6kOe5DcIK1EQN5OVWvSABGW9R4aDS339xKi5I4Qd9-J4bnOL6ADQbmkn3oNqeASp6IWDYm6OygXs80f3RCAKyOdix0qlyWdFp4bjGWcM5oINm00]-->
	</g>
</svg>
