<svg xmlns="http://www.w3.org/2000/svg" xmlns:xlink="http://www.w3.org/1999/xlink"
	contentStyleType="text/css" height="328px" preserveAspectRatio="none"
	style="width:684px;height:328px;background:#FFFFFF;" version="1.1" viewBox="0 0 684 328"
	width="684px" zoomAndPan="magnify">
	<defs />
	<g><!--class
		BlockExecutor-->
		<g id="elem_BlockExecutor">
			<rect codeLine="3" fill="#F1F1F1" height="32" id="BlockExecutor" rx="2.5"
				ry="2.5" style="stroke:#181818;stroke-width:0.5;" width="131.9893"
				x="212.5" y="10.5659" />
			<ellipse cx="227.5" cy="26.5659" fill="#B4A7E5" rx="11" ry="11"
				style="stroke:#181818;stroke-width:1.0;" />
			<path
				d="M223.4219,22.3315 L223.4219,20.1753 L230.8125,20.1753 L230.8125,22.3315 L228.3438,22.3315 L228.3438,30.4097 L230.8125,30.4097 L230.8125,32.5659 L223.4219,32.5659 L223.4219,30.4097 L225.8906,30.4097 L225.8906,22.3315 L223.4219,22.3315 Z "
				fill="#000000" />
			<text fill="#000000" font-family="sans-serif" font-size="14"
				font-style="italic" lengthAdjust="spacing" textLength="99.9893"
				x="241.5" y="31.4126">BlockExecutor</text>
		</g><!--class
		IOTypeImplementation-->
		<g id="elem_IOTypeImplementation">
			<rect codeLine="4" fill="#F1F1F1" height="32" id="IOTypeImplementation"
				rx="2.5" ry="2.5" style="stroke:#181818;stroke-width:0.5;"
				width="192.6514" x="423" y="10.5659" />
			<ellipse cx="438" cy="26.5659" fill="#B4A7E5" rx="11" ry="11"
				style="stroke:#181818;stroke-width:1.0;" />
			<path
				d="M433.9219,22.3315 L433.9219,20.1753 L441.3125,20.1753 L441.3125,22.3315 L438.8438,22.3315 L438.8438,30.4097 L441.3125,30.4097 L441.3125,32.5659 L433.9219,32.5659 L433.9219,30.4097 L436.3906,30.4097 L436.3906,22.3315 L433.9219,22.3315 Z "
				fill="#000000" />
			<text fill="#000000" font-family="sans-serif" font-size="14"
				font-style="italic" lengthAdjust="spacing" textLength="160.6514"
				x="452" y="31.4126">IOTypeImplementation</text>
		</g><!--class
		Table-->
		<g id="elem_Table">
			<rect codeLine="8" fill="#F1F1F1" height="32" id="Table" rx="2.5" ry="2.5"
				style="stroke:#181818;stroke-width:0.5;" width="70.5205" x="484"
				y="103.5659" />
			<ellipse cx="499" cy="119.5659" fill="#A9DCDF" rx="11" ry="11"
				style="stroke:#181818;stroke-width:1.0;" />
			<path
				d="M499.1094,114.9097 L497.9531,119.9878 L500.2813,119.9878 L499.1094,114.9097 Z M497.625,112.6753 L500.6094,112.6753 L503.9688,125.0659 L501.5156,125.0659 L500.75,122.0034 L497.4688,122.0034 L496.7188,125.0659 L494.2813,125.0659 L497.625,112.6753 Z "
				fill="#000000" />
			<text fill="#000000" font-family="sans-serif" font-size="14"
				font-style="italic" lengthAdjust="spacing" textLength="38.5205"
				x="513" y="124.4126">Table</text>
		</g><!--class
		PolarsTable-->
		<g id="elem_PolarsTable">
			<rect codeLine="9" fill="#F1F1F1" height="32" id="PolarsTable" rx="2.5"
				ry="2.5" style="stroke:#181818;stroke-width:0.5;" width="113.0469"
				x="443" y="196.5659" />
			<ellipse cx="458" cy="212.5659" fill="#ADD1B2" rx="11" ry="11"
				style="stroke:#181818;stroke-width:1.0;" />
			<path
				d="M460.9688,218.2065 Q460.3906,218.5034 459.75,218.644 Q459.1094,218.8003 458.4063,218.8003 Q455.9063,218.8003 454.5781,217.1597 Q453.2656,215.5034 453.2656,212.3784 Q453.2656,209.2534 454.5781,207.5972 Q455.9063,205.9409 458.4063,205.9409 Q459.1094,205.9409 459.75,206.0972 Q460.4063,206.2534 460.9688,206.5503 L460.9688,209.269 Q460.3438,208.6909 459.75,208.4253 Q459.1563,208.144 458.5313,208.144 Q457.1875,208.144 456.5,209.2222 Q455.8125,210.2847 455.8125,212.3784 Q455.8125,214.4722 456.5,215.5503 Q457.1875,216.6128 458.5313,216.6128 Q459.1563,216.6128 459.75,216.3472 Q460.3438,216.0659 460.9688,215.4878 L460.9688,218.2065 Z "
				fill="#000000" />
			<text fill="#000000" font-family="sans-serif" font-size="14"
				lengthAdjust="spacing" textLength="81.0469" x="472" y="217.4126">
				PolarsTable</text>
		</g><!--class
		TsTable-->
		<g id="elem_TsTable">
			<rect codeLine="10" fill="#F1F1F1" height="32" id="TsTable" rx="2.5"
				ry="2.5" style="stroke:#181818;stroke-width:0.5;" width="86.3662"
				x="591.5" y="196.5659" />
			<ellipse cx="606.5" cy="212.5659" fill="#ADD1B2" rx="11" ry="11"
				style="stroke:#181818;stroke-width:1.0;" />
			<path
				d="M609.4688,218.2065 Q608.8906,218.5034 608.25,218.644 Q607.6094,218.8003 606.9063,218.8003 Q604.4063,218.8003 603.0781,217.1597 Q601.7656,215.5034 601.7656,212.3784 Q601.7656,209.2534 603.0781,207.5972 Q604.4063,205.9409 606.9063,205.9409 Q607.6094,205.9409 608.25,206.0972 Q608.9063,206.2534 609.4688,206.5503 L609.4688,209.269 Q608.8438,208.6909 608.25,208.4253 Q607.6563,208.144 607.0313,208.144 Q605.6875,208.144 605,209.2222 Q604.3125,210.2847 604.3125,212.3784 Q604.3125,214.4722 605,215.5503 Q605.6875,216.6128 607.0313,216.6128 Q607.6563,216.6128 608.25,216.3472 Q608.8438,216.0659 609.4688,215.4878 L609.4688,218.2065 Z "
				fill="#000000" />
			<text fill="#000000" font-family="sans-serif" font-size="14"
				lengthAdjust="spacing" textLength="54.3662" x="620.5" y="217.4126">
				TsTable</text>
		</g><!--class
		AbstractBlockExecutor-->
		<g id="elem_AbstractBlockExecutor">
			<rect codeLine="13" fill="#F1F1F1" height="32" id="AbstractBlockExecutor"
				rx="2.5" ry="2.5" style="stroke:#181818;stroke-width:0.5;"
				width="190.7578" x="183" y="103.5659" />
			<ellipse cx="198" cy="119.5659" fill="#A9DCDF" rx="11" ry="11"
				style="stroke:#181818;stroke-width:1.0;" />
			<path
				d="M198.1094,114.9097 L196.9531,119.9878 L199.2813,119.9878 L198.1094,114.9097 Z M196.625,112.6753 L199.6094,112.6753 L202.9688,125.0659 L200.5156,125.0659 L199.75,122.0034 L196.4688,122.0034 L195.7188,125.0659 L193.2813,125.0659 L196.625,112.6753 Z "
				fill="#000000" />
			<text fill="#000000" font-family="sans-serif" font-size="14"
				font-style="italic" lengthAdjust="spacing" textLength="158.7578"
				x="212" y="124.4126">AbstractBlockExecutor</text>
		</g><!--class
		TableTransformerExecutor-->
		<g id="elem_TableTransformerExecutor">
			<rect codeLine="14" fill="#F1F1F1" height="32" id="TableTransformerExecutor"
				rx="2.5" ry="2.5" style="stroke:#181818;stroke-width:0.5;"
				width="218.9561" x="169" y="196.5659" />
			<ellipse cx="184" cy="212.5659" fill="#A9DCDF" rx="11" ry="11"
				style="stroke:#181818;stroke-width:1.0;" />
			<path
				d="M184.1094,207.9097 L182.9531,212.9878 L185.2813,212.9878 L184.1094,207.9097 Z M182.625,205.6753 L185.6094,205.6753 L188.9688,218.0659 L186.5156,218.0659 L185.75,215.0034 L182.4688,215.0034 L181.7188,218.0659 L179.2813,218.0659 L182.625,205.6753 Z "
				fill="#000000" />
			<text fill="#000000" font-family="sans-serif" font-size="14"
				font-style="italic" lengthAdjust="spacing" textLength="186.9561"
				x="198" y="217.4126">TableTransformerExecutor</text>
		</g><!--class
		PolarsTableTransformerExecutor-->
		<g id="elem_PolarsTableTransformerExecutor">
			<rect codeLine="15" fill="#F1F1F1" height="32"
				id="PolarsTableTransformerExecutor" rx="2.5" ry="2.5"
				style="stroke:#181818;stroke-width:0.5;" width="261.4824" x="7"
				y="289.5659" />
			<ellipse cx="22" cy="305.5659" fill="#ADD1B2" rx="11" ry="11"
				style="stroke:#181818;stroke-width:1.0;" />
			<path
				d="M24.9688,311.2065 Q24.3906,311.5034 23.75,311.644 Q23.1094,311.8003 22.4063,311.8003 Q19.9063,311.8003 18.5781,310.1597 Q17.2656,308.5034 17.2656,305.3784 Q17.2656,302.2534 18.5781,300.5972 Q19.9063,298.9409 22.4063,298.9409 Q23.1094,298.9409 23.75,299.0972 Q24.4063,299.2534 24.9688,299.5503 L24.9688,302.269 Q24.3438,301.6909 23.75,301.4253 Q23.1563,301.144 22.5313,301.144 Q21.1875,301.144 20.5,302.2222 Q19.8125,303.2847 19.8125,305.3784 Q19.8125,307.4722 20.5,308.5503 Q21.1875,309.6128 22.5313,309.6128 Q23.1563,309.6128 23.75,309.3472 Q24.3438,309.0659 24.9688,308.4878 L24.9688,311.2065 Z "
				fill="#000000" />
			<text fill="#000000" font-family="sans-serif" font-size="14"
				lengthAdjust="spacing" textLength="229.4824" x="36" y="310.4126">
				PolarsTableTransformerExecutor</text>
		</g><!--class
		TsTableTransformerExecutor-->
		<g id="elem_TsTableTransformerExecutor">
			<rect codeLine="16" fill="#F1F1F1" height="32"
				id="TsTableTransformerExecutor" rx="2.5" ry="2.5"
				style="stroke:#181818;stroke-width:0.5;" width="234.8018" x="303"
				y="289.5659" />
			<ellipse cx="318" cy="305.5659" fill="#ADD1B2" rx="11" ry="11"
				style="stroke:#181818;stroke-width:1.0;" />
			<path
				d="M320.9688,311.2065 Q320.3906,311.5034 319.75,311.644 Q319.1094,311.8003 318.4063,311.8003 Q315.9063,311.8003 314.5781,310.1597 Q313.2656,308.5034 313.2656,305.3784 Q313.2656,302.2534 314.5781,300.5972 Q315.9063,298.9409 318.4063,298.9409 Q319.1094,298.9409 319.75,299.0972 Q320.4063,299.2534 320.9688,299.5503 L320.9688,302.269 Q320.3438,301.6909 319.75,301.4253 Q319.1563,301.144 318.5313,301.144 Q317.1875,301.144 316.5,302.2222 Q315.8125,303.2847 315.8125,305.3784 Q315.8125,307.4722 316.5,308.5503 Q317.1875,309.6128 318.5313,309.6128 Q319.1563,309.6128 319.75,309.3472 Q320.3438,309.0659 320.9688,308.4878 L320.9688,311.2065 Z "
				fill="#000000" />
			<text fill="#000000" font-family="sans-serif" font-size="14"
				lengthAdjust="spacing" textLength="202.8018" x="332" y="310.4126">
				TsTableTransformerExecutor</text>
		</g><!--link
		BlockExecutor to IOTypeImplementation-->
		<g id="link_BlockExecutor_IOTypeImplementation">
			<path codeLine="6"
				d="M341,42.6059 C349.44,44.2359 358.02,45.6359 366.25,46.5659 C394.11,49.7059 424.76,46.9459 451.29,42.5859 "
				fill="none" id="BlockExecutor-IOTypeImplementation"
				style="stroke:#181818;stroke-width:1.0;" />
			<text fill="#000000" font-family="sans-serif" font-size="13"
				lengthAdjust="spacing" textLength="33.4395" x="367.25" y="42.6328">
				input</text>
		</g><!--link
		BlockExecutor to IOTypeImplementation-->
		<g id="link_BlockExecutor_IOTypeImplementation">
			<path codeLine="7"
				d="M344.67,26.5659 C368.78,26.5659 396.56,26.5659 422.77,26.5659 "
				fill="none" id="BlockExecutor-IOTypeImplementation-1"
				style="stroke:#181818;stroke-width:1.0;" />
			<text fill="#000000" font-family="sans-serif" font-size="13"
				lengthAdjust="spacing" textLength="42.8784" x="362.75" y="19.6328">
				output</text>
		</g><!--reverse
		link IOTypeImplementation to Table-->
		<g id="link_IOTypeImplementation_Table">
			<path d="M519.5,60.5959 C519.5,77.4559 519.5,86.6459 519.5,103.5159 "
				fill="none" id="IOTypeImplementation-backto-Table"
				style="stroke:#181818;stroke-width:1.0;stroke-dasharray:7.0,7.0;" />
			<polygon fill="none"
				points="519.5,42.5959,513.5,60.5959,525.5,60.5959,519.5,42.5959"
				style="stroke:#181818;stroke-width:1.0;" />
		</g><!--reverse
		link Table to PolarsTable-->
		<g id="link_Table_PolarsTable">
			<path
				d="M512.3317,153.1753 C508.6217,170.0353 506.52,179.6459 502.81,196.5159 "
				fill="none" id="Table-backto-PolarsTable"
				style="stroke:#181818;stroke-width:1.0;" />
			<polygon fill="none"
				points="516.2,135.5959,506.4719,151.8859,518.1915,154.4648,516.2,135.5959"
				style="stroke:#181818;stroke-width:1.0;" />
		</g><!--reverse
		link Table to TsTable-->
		<g id="link_Table_TsTable">
			<path
				d="M552.6062,146.7643 C573.9162,163.6243 594.16,179.6459 615.48,196.5159 "
				fill="none" id="Table-backto-TsTable"
				style="stroke:#181818;stroke-width:1.0;" />
			<polygon fill="none"
				points="538.49,135.5959,548.8834,151.4697,556.329,142.0589,538.49,135.5959"
				style="stroke:#181818;stroke-width:1.0;" />
		</g><!--reverse
		link BlockExecutor to AbstractBlockExecutor-->
		<g id="link_BlockExecutor_AbstractBlockExecutor">
			<path d="M278.5,60.5959 C278.5,77.4559 278.5,86.6459 278.5,103.5159 "
				fill="none" id="BlockExecutor-backto-AbstractBlockExecutor"
				style="stroke:#181818;stroke-width:1.0;stroke-dasharray:7.0,7.0;" />
			<polygon fill="none"
				points="278.5,42.5959,272.5,60.5959,284.5,60.5959,278.5,42.5959"
				style="stroke:#181818;stroke-width:1.0;" />
		</g><!--reverse
		link AbstractBlockExecutor to TableTransformerExecutor-->
		<g id="link_AbstractBlockExecutor_TableTransformerExecutor">
			<path d="M278.5,153.5959 C278.5,170.4559 278.5,179.6459 278.5,196.5159 "
				fill="none"
				id="AbstractBlockExecutor-backto-TableTransformerExecutor"
				style="stroke:#181818;stroke-width:1.0;" />
			<polygon fill="none"
				points="278.5,135.5959,272.5,153.5959,284.5,153.5959,278.5,135.5959"
				style="stroke:#181818;stroke-width:1.0;" />
		</g><!--reverse
		link TableTransformerExecutor to PolarsTableTransformerExecutor-->
		<g id="link_TableTransformerExecutor_PolarsTableTransformerExecutor">
			<path
				d="M240.0952,238.355 C213.9652,255.215 186.96,272.6459 160.82,289.5159 "
				fill="none"
				id="TableTransformerExecutor-backto-PolarsTableTransformerExecutor"
				style="stroke:#181818;stroke-width:1.0;" />
			<polygon fill="none"
				points="255.22,228.5959,236.8421,233.3134,243.3482,243.3966,255.22,228.5959"
				style="stroke:#181818;stroke-width:1.0;" />
		</g><!--reverse
		link TableTransformerExecutor to TsTableTransformerExecutor-->
		<g id="link_TableTransformerExecutor_TsTableTransformerExecutor">
			<path
				d="M317.1052,238.3077 C343.4152,255.1677 370.69,272.6459 397.02,289.5159 "
				fill="none"
				id="TableTransformerExecutor-backto-TsTableTransformerExecutor"
				style="stroke:#181818;stroke-width:1.0;" />
			<polygon fill="none"
				points="301.95,228.5959,313.868,243.3595,320.3425,233.256,301.95,228.5959"
				style="stroke:#181818;stroke-width:1.0;" />
		</g><!--SRC=[dP0x3eCm38PdSWfVW0jqQwKEJEsG2vXWrAXv8CT8zFP50YeeeKEZB94__uyyR4FWoTV4IQcYi468MpG45nVDypgGwINoPbBTzAkZodUEF0L1iJ6Cm7WtEm0bPDaJsD3rikFB0phsCk5O9s4q0iPXIg2nTWHseLC-68nduk_H8QTfYmQXqCmQAqRdvg3KtlqyFxSTLcc-Fp2NNZE6r4Rsn1-9nJfhaA_pI-O8s9V-H-KD]-->
	</g>
</svg>
