<svg xmlns="http://www.w3.org/2000/svg" xmlns:xlink="http://www.w3.org/1999/xlink"
	contentStyleType="text/css" height="255px" preserveAspectRatio="none"
	style="width:179px;height:255px;background:#FFFFFF;" version="1.1" viewBox="0 0 179 255"
	width="179px" zoomAndPan="magnify">
	<defs />
	<g>
		<ellipse cx="89.9033" cy="20" fill="#222222" rx="10" ry="10"
			style="stroke:#222222;stroke-width:1.0;" />
		<rect fill="#F1F1F1" height="33.9688" rx="12.5" ry="12.5"
			style="stroke:#181818;stroke-width:0.5;" width="131.5625" x="24.1221"
			y="71.3989" />
		<text fill="#000000" font-family="sans-serif" font-size="12" lengthAdjust="spacing"
			textLength="111.5625" x="34.1221" y="92.5376">:LocalFileExtractor</text>
		<rect fill="#F1F1F1" height="33.9688" rx="12.5" ry="12.5"
			style="stroke:#181818;stroke-width:0.5;" width="157.8066" x="11"
			y="146.7666" />
		<text fill="#000000" font-family="sans-serif" font-size="12" lengthAdjust="spacing"
			textLength="137.8066" x="21" y="167.9053">:FileToTableInterpreter</text>
		<ellipse cx="89.9033" cy="233.1343" fill="none" rx="11" ry="11"
			style="stroke:#222222;stroke-width:1.0;" />
		<ellipse cx="89.9033" cy="233.1343" fill="#222222" rx="6" ry="6"
			style="stroke:#222222;stroke-width:1.0;" />
		<line style="stroke:#181818;stroke-width:1.0;" x1="89.9033" x2="89.9033" y1="30"
			y2="71.3989" />
		<polygon fill="#181818"
			points="85.9033,61.3989,89.9033,71.3989,93.9033,61.3989,89.9033,65.3989"
			style="stroke:#181818;stroke-width:1.0;" />
		<text fill="#000000" font-family="sans-serif" font-size="11" lengthAdjust="spacing"
			textLength="28.6978" x="93.9033" y="51.3047">None</text>
		<line style="stroke:#181818;stroke-width:1.0;" x1="89.9033" x2="89.9033"
			y1="105.3677" y2="146.7666" />
		<polygon fill="#181818"
			points="85.9033,136.7666,89.9033,146.7666,93.9033,136.7666,89.9033,140.7666"
			style="stroke:#181818;stroke-width:1.0;" />
		<text fill="#000000" font-family="sans-serif" font-size="11" lengthAdjust="spacing"
			textLength="19.207" x="93.9033" y="126.6724">File</text>
		<line style="stroke:#181818;stroke-width:1.0;" x1="89.9033" x2="89.9033"
			y1="180.7354" y2="222.1343" />
		<polygon fill="#181818"
			points="85.9033,212.1343,89.9033,222.1343,93.9033,212.1343,89.9033,216.1343"
			style="stroke:#181818;stroke-width:1.0;" />
		<text fill="#000000" font-family="sans-serif" font-size="11" lengthAdjust="spacing"
			textLength="30.2661" x="93.9033" y="202.04">Table</text><!--SRC=[Aov9B2hXuWG3NJi5l_oyL6ieryhA9pyvCSSjCoVLjQAaA36v9B_86g4K98vG2kA5v8Sa9kMaUkQLf1OL5AK2IIJbO2aOlxWalm00]-->
	</g>
</svg>
