<svg xmlns="http://www.w3.org/2000/svg" xmlns:xlink="http://www.w3.org/1999/xlink"
	contentStyleType="text/css" height="398px" preserveAspectRatio="none"
	style="width:643px;height:398px;background:#FFFFFF;" version="1.1" viewBox="0 0 643 398"
	width="643px" zoomAndPan="magnify">
	<defs />
	<g>
		<rect fill="#FFFFFF" height="277.5938" style="stroke:#181818;stroke-width:1.0;"
			width="10" x="208.0142" y="67.4297" />
		<rect fill="#FFFFFF" height="143.6641" style="stroke:#181818;stroke-width:1.0;"
			width="10" x="439.7686" y="141.9609" />
		<rect fill="#FFFFFF" height="40.1328" style="stroke:#181818;stroke-width:1.0;"
			width="10" x="444.7686" y="209.3594" />
		<line style="stroke:#181818;stroke-width:0.5;stroke-dasharray:5.0,5.0;"
			x1="212.9146" x2="212.9146" y1="36.2969" y2="363.0234" />
		<line style="stroke:#181818;stroke-width:0.5;stroke-dasharray:5.0,5.0;"
			x1="444.1138" x2="444.1138" y1="36.2969" y2="363.0234" />
		<rect fill="#E2E2F0" height="30.2969" rx="2.5" ry="2.5"
			style="stroke:#181818;stroke-width:0.5;" width="248.1992" x="88.9146" y="5" />
		<text fill="#000000" font-family="sans-serif" font-size="14" lengthAdjust="spacing"
			textLength="234.1992" x="95.9146" y="24.9951">
			:PolarsTableTransformerExecutor</text>
		<rect fill="#E2E2F0" height="30.2969" rx="2.5" ry="2.5"
			style="stroke:#181818;stroke-width:0.5;" width="248.1992" x="88.9146"
			y="362.0234" />
		<text fill="#000000" font-family="sans-serif" font-size="14" lengthAdjust="spacing"
			textLength="234.1992" x="95.9146" y="382.0186">
			:PolarsTableTransformerExecutor</text>
		<rect fill="#E2E2F0" height="30.2969" rx="2.5" ry="2.5"
			style="stroke:#181818;stroke-width:0.5;" width="195.3096" x="347.1138" y="5" />
		<text fill="#000000" font-family="sans-serif" font-size="14" lengthAdjust="spacing"
			textLength="181.3096" x="354.1138" y="24.9951">:PolarsTransformExecutor</text>
		<rect fill="#E2E2F0" height="30.2969" rx="2.5" ry="2.5"
			style="stroke:#181818;stroke-width:0.5;" width="195.3096" x="347.1138"
			y="362.0234" />
		<text fill="#000000" font-family="sans-serif" font-size="14" lengthAdjust="spacing"
			textLength="181.3096" x="354.1138" y="382.0186">:PolarsTransformExecutor</text>
		<rect fill="#FFFFFF" height="277.5938" style="stroke:#181818;stroke-width:1.0;"
			width="10" x="208.0142" y="67.4297" />
		<rect fill="#FFFFFF" height="143.6641" style="stroke:#181818;stroke-width:1.0;"
			width="10" x="439.7686" y="141.9609" />
		<rect fill="#FFFFFF" height="40.1328" style="stroke:#181818;stroke-width:1.0;"
			width="10" x="444.7686" y="209.3594" />
		<polygon fill="#181818"
			points="196.0142,63.4297,206.0142,67.4297,196.0142,71.4297,200.0142,67.4297"
			style="stroke:#181818;stroke-width:1.0;" />
		<line style="stroke:#181818;stroke-width:1.0;" x1="0" x2="202.0142" y1="67.4297"
			y2="67.4297" />
		<text fill="#000000" font-family="sans-serif" font-size="13" lengthAdjust="spacing"
			textLength="189.0142" x="7" y="62.3638">execute(inputTable, context)</text>
		<polygon fill="#181818"
			points="427.7686,137.9609,437.7686,141.9609,427.7686,145.9609,431.7686,141.9609"
			style="stroke:#181818;stroke-width:1.0;" />
		<line style="stroke:#181818;stroke-width:1.0;" x1="218.0142" x2="433.7686"
			y1="141.9609" y2="141.9609" />
		<text fill="#000000" font-family="sans-serif" font-size="13" lengthAdjust="spacing"
			textLength="124.0459" x="225.0142" y="91.4966">executeTransform(</text>
		<text fill="#000000" font-family="sans-serif" font-size="13" lengthAdjust="spacing"
			textLength="58.7603" x="225.0142" y="106.6294">columns,</text>
		<text fill="#000000" font-family="sans-serif" font-size="13" lengthAdjust="spacing"
			textLength="49.2261" x="225.0142" y="121.7622">context</text>
		<text fill="#000000" font-family="sans-serif" font-size="13" lengthAdjust="spacing"
			textLength="5.0718" x="225.0142" y="136.895">)</text>
		<line style="stroke:#181818;stroke-width:1.0;" x1="449.7686" x2="496.7686"
			y1="196.3594" y2="196.3594" />
		<line style="stroke:#181818;stroke-width:1.0;" x1="496.7686" x2="496.7686"
			y1="196.3594" y2="209.3594" />
		<line style="stroke:#181818;stroke-width:1.0;" x1="455.7686" x2="496.7686"
			y1="209.3594" y2="209.3594" />
		<polygon fill="#181818"
			points="465.7686,205.3594,455.7686,209.3594,465.7686,213.3594,461.7686,209.3594"
			style="stroke:#181818;stroke-width:1.0;" />
		<text fill="#000000" font-family="sans-serif" font-size="13" lengthAdjust="spacing"
			textLength="174.2686" x="461.7686" y="161.0278">jayveeExpressionToPolars(</text>
		<text fill="#000000" font-family="sans-serif" font-size="13" lengthAdjust="spacing"
			textLength="117.73" x="461.7686" y="176.1606">jayvee expression</text>
		<text fill="#000000" font-family="sans-serif" font-size="13" lengthAdjust="spacing"
			textLength="5.0718" x="461.7686" y="191.2935">)</text>
		<line style="stroke:#181818;stroke-width:1.0;stroke-dasharray:2.0,2.0;"
			x1="454.7686" x2="496.7686" y1="248.4922" y2="248.4922" />
		<line style="stroke:#181818;stroke-width:1.0;stroke-dasharray:2.0,2.0;"
			x1="496.7686" x2="496.7686" y1="248.4922" y2="261.4922" />
		<line style="stroke:#181818;stroke-width:1.0;stroke-dasharray:2.0,2.0;"
			x1="449.7686" x2="496.7686" y1="261.4922" y2="261.4922" />
		<polygon fill="#181818"
			points="459.7686,257.4922,449.7686,261.4922,459.7686,265.4922,455.7686,261.4922"
			style="stroke:#181818;stroke-width:1.0;" />
		<text fill="#000000" font-family="sans-serif" font-size="13" lengthAdjust="spacing"
			textLength="83.3003" x="461.7686" y="243.4263">expr: pl.Expr</text>
		<polygon fill="#181818"
			points="229.0142,281.625,219.0142,285.625,229.0142,289.625,225.0142,285.625"
			style="stroke:#181818;stroke-width:1.0;" />
		<line style="stroke:#181818;stroke-width:1.0;stroke-dasharray:2.0,2.0;"
			x1="223.0142" x2="443.7686" y1="285.625" y2="285.625" />
		<text fill="#000000" font-family="sans-serif" font-size="13" lengthAdjust="spacing"
			textLength="107.6626" x="235.0142" y="280.5591">expr.cast(pl.f64)</text>
		<polygon fill="#181818" points="11,341.0234,1,345.0234,11,349.0234,7,345.0234"
			style="stroke:#181818;stroke-width:1.0;" />
		<line style="stroke:#181818;stroke-width:1.0;stroke-dasharray:2.0,2.0;" x1="5"
			x2="212.0142" y1="345.0234" y2="345.0234" />
		<text fill="#000000" font-family="sans-serif" font-size="13" lengthAdjust="spacing"
			textLength="155.7778" x="17" y="309.6919">inputTable.withColumn(</text>
		<text fill="#000000" font-family="sans-serif" font-size="13" lengthAdjust="spacing"
			textLength="180.3052" x="17" y="324.8247">expr.cast(pl.f64).alias('out')</text>
		<text fill="#000000" font-family="sans-serif" font-size="13" lengthAdjust="spacing"
			textLength="5.0718" x="17" y="339.9575">)</text><!--SRC=[XP0z3u8m48Pd_HKD2vW8at5WS37k3emkPtF4cdf7sglYlxUMY186jykz7y-r48H1Yxc3e69QBXRbBgkFRC7v1iuM6mVaMtOtT8SUTRIxh5QOHYmCTK6IRwqqas0lgzZnjq6LEpMQFlgyVvIA4scsuKP-_PuIw4GJrApb7-CApplYeUySUc-O6XwyaJL8yOgFDh0SId2KrhNgRFNEJjUL1Yz5bDhjvYVn_QRgOUIoJq-9d5ca0cl05pa7oLSH-W80]-->
	</g>
</svg>
